<svg xmlns="http://www.w3.org/2000/svg" width="17.5" height="20" viewBox="0 0 17.5 20">
  <path id="building-solid" d="M17.031,18.75H16.25V.938A.937.937,0,0,0,15.313,0H2.188A.937.937,0,0,0,1.25.938V18.75H.469A.469.469,0,0,0,0,19.219V20H17.5v-.781A.469.469,0,0,0,17.031,18.75ZM5,2.969A.469.469,0,0,1,5.469,2.5H7.031a.469.469,0,0,1,.469.469V4.531A.469.469,0,0,1,7.031,5H5.469A.469.469,0,0,1,5,4.531Zm0,3.75a.469.469,0,0,1,.469-.469H7.031a.469.469,0,0,1,.469.469V8.281a.469.469,0,0,1-.469.469H5.469A.469.469,0,0,1,5,8.281ZM7.031,12.5H5.469A.469.469,0,0,1,5,12.031V10.469A.469.469,0,0,1,5.469,10H7.031a.469.469,0,0,1,.469.469v1.563A.469.469,0,0,1,7.031,12.5ZM10,18.75H7.5V15.469A.469.469,0,0,1,7.969,15H9.531a.469.469,0,0,1,.469.469Zm2.5-6.719a.469.469,0,0,1-.469.469H10.469A.469.469,0,0,1,10,12.031V10.469A.469.469,0,0,1,10.469,10h1.563a.469.469,0,0,1,.469.469Zm0-3.75a.469.469,0,0,1-.469.469H10.469A.469.469,0,0,1,10,8.281V6.719a.469.469,0,0,1,.469-.469h1.563a.469.469,0,0,1,.469.469Zm0-3.75A.469.469,0,0,1,12.031,5H10.469A.469.469,0,0,1,10,4.531V2.969a.469.469,0,0,1,.469-.469h1.563a.469.469,0,0,1,.469.469Z"/>
</svg>
