<svg xmlns="http://www.w3.org/2000/svg" width="18.819" height="24" viewBox="0 0 18.819 24"><g transform="translate(-4.19 -2)"><g transform="translate(-10 -15)"><g transform="translate(14 17)"><g transform="translate(19.2) rotate(180)"><path d="M1.542-6.862l.894-.692,1.44-1.115A3.758,3.758,0,0,0,5.406-6.325L2.635-4.178l.858,1.139a1.071,1.071,0,0,1-.2,1.488L1.207-4.323A1.823,1.823,0,0,1,.864-5.708,1.808,1.808,0,0,1,1.542-6.862Z" fill="#003e6b" fill-rule="evenodd"/><path d="M10.327-16.551c-3.091,1.62-5.844,2.079-6.539.966-.57-.914.4-2.647,2.3-4.422l-1.8-2.932H3.057A1.054,1.054,0,0,1,2.039-24H5.747L6.4-22.94l1.045,1.7.408.664a1.584,1.584,0,0,0-.228.82A1.566,1.566,0,0,0,9.18-18.18c.048,0,.094,0,.141-.009Z" fill="#003e6b" fill-rule="evenodd"/><path d="M18.974-6.453A1.717,1.717,0,0,1,17.3-5.073a1.685,1.685,0,0,1-.664-.136,1.735,1.735,0,0,1-1.047-1.6v-8.224a1.054,1.054,0,0,0-1.047-1.061,1.045,1.045,0,0,0-.949.616c-.015.032-.028.066-.04.1l-.972,2.442,1.887,6.454,0,.013c.023.072.043.145.063.217A5.356,5.356,0,0,1,11.673,0L7.23-1.566a1.065,1.065,0,0,1-.654-1.343L7.7-2.5a.852.852,0,0,0,1.093-.524.87.87,0,0,0-.517-1.108L7.116-4.555a1.042,1.042,0,0,1,1.34-.621l1.226.457A1.063,1.063,0,0,0,9-5.9L6.655-6.769A2.916,2.916,0,0,1,4.913-9.325c0-.042,0-.084,0-.127,0-.026,0-.052,0-.078L4.9-9.51H1.237v1.433c0,.4-.489.749-.8.93L.19-7.015v-3.513a1.8,1.8,0,0,1,1.785-1.787H6.111a4.5,4.5,0,0,0,1.063-.127l-.05.015.054-.015.032-.008a4.593,4.593,0,0,0,3.429-4.027c0-.034.005-.069.008-.1.008-.114.014-.228.014-.344a4.63,4.63,0,0,0-1.023-2.912q-.07-.087-.145-.171a1.166,1.166,0,0,1-.208-.666,1.155,1.155,0,0,1,1.147-1.162,1.131,1.131,0,0,1,.618.183l2.321,1.389a1.063,1.063,0,0,0,.537-.927,1.065,1.065,0,0,0-.251-.69L12.7-22.94H11.463A1.054,1.054,0,0,1,10.445-24H13.8a1.8,1.8,0,0,0,1.786,1.811v3.09a1.805,1.805,0,0,0-1.436,1.776c0,.044,0,.088.005.131a2.124,2.124,0,0,1,.32-.027,2.122,2.122,0,0,1,1.111.315,2.19,2.19,0,0,1,1.047,1.873v8.224a.689.689,0,0,0,.684.694A.688.688,0,0,0,18-6.767a1.815,1.815,0,0,1-.779-1.495,1.8,1.8,0,0,1,1.786-1.811v3.266a1.76,1.76,0,0,1-.036.354Z" fill="#003e6b" fill-rule="evenodd"/></g></g></g></g></svg>