<svg xmlns="http://www.w3.org/2000/svg" width="19.13" height="18.544" viewBox="0 0 19.13 18.544">
  <defs>
    <style>
      .cls-1 {
        fill-rule: evenodd;
      }
    </style>
  </defs>
  <g id="ic-on-campus" transform="translate(-3.87 -2.456)">
    <g id="prog2_pro3_Mobile-Portrait_opt2-Copy-2" transform="translate(-93 -18)">
      <g id="nav">
        <g id="Group-6">
          <g id="ic_onCampus" transform="translate(96 20)">
            <path id="Shape" class="cls-1" d="M20,2V4H15L11.53,9H14v2H12.46l3.71,8h-2.2l-.93-2H4.38L3.35,19H1.1l4.13-8H5a1.015,1.015,0,0,1-.96-.7L.87.84,1.82.5a1.02,1.02,0,0,1,1.26.65L5.72,9H10.1l3.47-5H10V2ZM7.5,11,5.42,15h6.69l-1.85-4Z"/>
          </g>
        </g>
      </g>
    </g>
  </g>
</svg>
